# xmcd
#
# Track frame offsets: 
#        150
#        13242
#        31702
#        46771
#        60533
#        72583
#        88580
#        99995
#        113466
#        130485
#        146957
#
# Disc length: 2283 seconds
#
# Revision: 0
# Processed by: cddbd v1.5.2PL0 Copyright (c) Steve Scherf et al.
# Submitted via: ExactAudioCopy v0.99pb4
#
DISCID=9208e90b
DTITLE=Big Jay NcNeely and The Rocket 88s - AZ Bootin'
DYEAR=1988
DGENRE=Blues
TTITLE0=Gila Moon
TTITLE1=Zydeco Stroll
TTITLE2=Summertime
TTITLE3=Phoenix Hambone
TTITLE4=All That Wine is Gone
TTITLE5=Short on Bread
TTITLE6=Mercury Falling
TTITLE7=Mean Man Blues
TTITLE8=Camelback Drive
TTITLE9=Big Jay's Shuffle
TTITLE10=Scooby-Doo Blues
EXTD=
EXTT0=
EXTT1=
EXTT2=
EXTT3=
EXTT4=
EXTT5=
EXTT6=
EXTT7=
EXTT8=
EXTT9=
EXTT10=
PLAYORDER=
